<?xml version="1.0" standalone="no"?>
<!DOCTYPE svg PUBLIC "-//W3C//DTD SVG 1.1//EN"
  "http://www.w3.org/Graphics/SVG/1.1/DTD/svg11.dtd">
<!-- Created with matplotlib (http://matplotlib.sourceforge.net/) -->
<svg width="326pt" height="260pt" viewBox="0 0 326 260"
   xmlns="http://www.w3.org/2000/svg"
   xmlns:xlink="http://www.w3.org/1999/xlink"
   version="1.1"
   id="svg1">
<filter id="colorAdd"><feComposite in="SourceGraphic" in2="BackgroundImage" operator="arithmetic" k2="1" k3="1"/></filter>
<g id="figure1">
<g id="patch1">
<path style="fill: #ffffff; stroke: #ffffff; stroke-width: 1.000000; stroke-linejoin: round; stroke-linecap: square;  opacity: 1.000000"  d="M0.000000 260.750000L326.951562 260.750000L326.951562 0.000000
L0.000000 0.000000z"/>
</g>
<g id="axes1">
<g id="patch2">
<path style="fill: #ffffff; opacity: 1.000000"  d="M30.565625 245.575000L309.565625 245.575000L309.565625 15.175000
L30.565625 15.175000z"/>
</g>
<g id="line2d1">
<defs>
  <clipPath id="pb327cdf1be9e846eeedc56c21153d189">
<rect x="30.565625" y="15.175000" width="279.000000" height="230.400000"/>
  </clipPath>
</defs><path style="fill: none; stroke: #0000ff; stroke-width: 2.000000; stroke-linejoin: round; stroke-linecap: square;  opacity: 1.000000" clip-path="url(#pb327cdf1be9e846eeedc56c21153d189)" d="M32.438108 242.615524L34.310591 213.815524L36.183075 196.968604
L38.055558 185.015524L39.928041 175.743995L41.800524 168.168604
L43.673008 161.763703L45.545491 156.215524L47.417974 151.321684
L49.290457 146.943995L51.162940 142.983894L53.035424 139.368604
L54.907907 136.042860L58.652873 130.097075L62.397840 124.896594
L66.142806 120.275212L69.887773 116.116782L73.632739 112.336940
L77.377706 108.872466L81.122672 105.674764L84.867638 102.705672
L90.485088 98.615524L96.102538 94.892173L101.719987 91.475212
L107.337437 88.318027L112.954887 85.383894L120.444820 81.768604
L127.934753 78.442860L135.424685 75.363703L142.914618 72.497075
L152.277034 69.171331L161.639451 66.092173L171.001867 63.225546
L182.236766 60.027844L193.471665 57.058752L206.579048 53.843365
L219.686430 50.859034L234.666296 47.691816L249.646162 44.749020
L266.498511 41.669862L285.223343 38.496594L303.948175 35.548577
L309.565625 34.703471L309.565625 34.703471"/>
</g>
<g id="line2d2">
<defs><path id="m87f81da4bcf58d853202912065521dc1" d="M0.000000 3.000000C0.795609 3.000000 1.558740 2.683901 2.121320 2.121320
C2.683901 1.558740 3.000000 0.795609 3.000000 0.000000
C3.000000 -0.795609 2.683901 -1.558740 2.121320 -2.121320
C1.558740 -2.683901 0.795609 -3.000000 0.000000 -3.000000
C-0.795609 -3.000000 -1.558740 -2.683901 -2.121320 -2.121320
C-2.683901 -1.558740 -3.000000 -0.795609 -3.000000 0.000000
C-3.000000 0.795609 -2.683901 1.558740 -2.121320 2.121320
C-1.558740 2.683901 -0.795609 3.000000 0.000000 3.000000z"/></defs>
<g clip-path="url(#pb327cdf1be9e846eeedc56c21153d189)"><use style="fill: #000000; stroke: #000000; stroke-width: 0.500000; stroke-linejoin: round; stroke-linecap: butt;  opacity: 1.000000" xlink:href="#m87f81da4bcf58d853202912065521dc1" x="58.465625" y="130.375000"/>
<use style="fill: #000000; stroke: #000000; stroke-width: 0.500000; stroke-linejoin: round; stroke-linecap: butt;  opacity: 1.000000" xlink:href="#m87f81da4bcf58d853202912065521dc1" x="86.365625" y="101.575000"/>
<use style="fill: #000000; stroke: #000000; stroke-width: 0.500000; stroke-linejoin: round; stroke-linecap: butt;  opacity: 1.000000" xlink:href="#m87f81da4bcf58d853202912065521dc1" x="142.165625" y="72.775000"/>
<use style="fill: #000000; stroke: #000000; stroke-width: 0.500000; stroke-linejoin: round; stroke-linecap: butt;  opacity: 1.000000" xlink:href="#m87f81da4bcf58d853202912065521dc1" x="253.765625" y="43.975000"/>
</g></g>
<g id="GridlinesCollection1">
<defs>
<path id="coll0_0_7c9b2a5ae983371d229cdf5a8ef77222" d="M30.565625 -15.175000L30.565625 -245.575000"/>
<path id="coll0_1_66c326597f4da30a4d238ae8a60c820b" d="M86.365625 -15.175000L86.365625 -245.575000"/>
<path id="coll0_2_98bfe4d5352deff1ba4851ddac231c0f" d="M142.165625 -15.175000L142.165625 -245.575000"/>
<path id="coll0_3_432a45f8558fdda471172c78ca5b2aca" d="M197.965625 -15.175000L197.965625 -245.575000"/>
<path id="coll0_4_7cb56930111a9a9fc5087760a255e638" d="M253.765625 -15.175000L253.765625 -245.575000"/>
<path id="coll0_5_e2a598014aee3608e0d400f9cf79fc33" d="M309.565625 -15.175000L309.565625 -245.575000"/>
<path id="coll0_6_b3d35c4c7119f282b0c81f6151515da3" d="M30.565625 -15.175000L309.565625 -15.175000"/>
<path id="coll0_7_e6d476c73ed0c89ef9cfcbbe600a8603" d="M30.565625 -43.975000L309.565625 -43.975000"/>
<path id="coll0_8_5a1af6319915600d9d2bf53c73a10375" d="M30.565625 -72.775000L309.565625 -72.775000"/>
<path id="coll0_9_8b7c259c83d6be1322539a2b964d793b" d="M30.565625 -101.575000L309.565625 -101.575000"/>
<path id="coll0_a_ca94a43cad1bedb2b921231f5d655f81" d="M30.565625 -130.375000L309.565625 -130.375000"/>
<path id="coll0_b_55258a623792c11e4c216df6a940eb16" d="M30.565625 -159.175000L309.565625 -159.175000"/>
<path id="coll0_c_e2bda4ac93156e3cfa0ee11f338fa354" d="M30.565625 -187.975000L309.565625 -187.975000"/>
<path id="coll0_d_d32946de02019062b90222ff14d5fbbe" d="M30.565625 -216.775000L309.565625 -216.775000"/>
<path id="coll0_e_3fed15f8cf57c31279508e131f533840" d="M30.565625 -245.575000L309.565625 -245.575000"/>
</defs>
<g clip-path="url(#pb327cdf1be9e846eeedc56c21153d189)"><use style="fill: none; stroke: #000000; stroke-width: 0.500000; stroke-linejoin: round; stroke-linecap: butt; stroke-dasharray: 1.000000,3.000000; stroke-dashoffset: 0.000000; opacity: 1.000000" xlink:href="#coll0_0_7c9b2a5ae983371d229cdf5a8ef77222" x="0.000000" y="260.750000"/>
</g><g clip-path="url(#pb327cdf1be9e846eeedc56c21153d189)"><use style="fill: none; stroke: #000000; stroke-width: 0.500000; stroke-linejoin: round; stroke-linecap: butt; stroke-dasharray: 1.000000,3.000000; stroke-dashoffset: 0.000000; opacity: 1.000000" xlink:href="#coll0_1_66c326597f4da30a4d238ae8a60c820b" x="0.000000" y="260.750000"/>
</g><g clip-path="url(#pb327cdf1be9e846eeedc56c21153d189)"><use style="fill: none; stroke: #000000; stroke-width: 0.500000; stroke-linejoin: round; stroke-linecap: butt; stroke-dasharray: 1.000000,3.000000; stroke-dashoffset: 0.000000; opacity: 1.000000" xlink:href="#coll0_2_98bfe4d5352deff1ba4851ddac231c0f" x="0.000000" y="260.750000"/>
</g><g clip-path="url(#pb327cdf1be9e846eeedc56c21153d189)"><use style="fill: none; stroke: #000000; stroke-width: 0.500000; stroke-linejoin: round; stroke-linecap: butt; stroke-dasharray: 1.000000,3.000000; stroke-dashoffset: 0.000000; opacity: 1.000000" xlink:href="#coll0_3_432a45f8558fdda471172c78ca5b2aca" x="0.000000" y="260.750000"/>
</g><g clip-path="url(#pb327cdf1be9e846eeedc56c21153d189)"><use style="fill: none; stroke: #000000; stroke-width: 0.500000; stroke-linejoin: round; stroke-linecap: butt; stroke-dasharray: 1.000000,3.000000; stroke-dashoffset: 0.000000; opacity: 1.000000" xlink:href="#coll0_4_7cb56930111a9a9fc5087760a255e638" x="0.000000" y="260.750000"/>
</g><g clip-path="url(#pb327cdf1be9e846eeedc56c21153d189)"><use style="fill: none; stroke: #000000; stroke-width: 0.500000; stroke-linejoin: round; stroke-linecap: butt; stroke-dasharray: 1.000000,3.000000; stroke-dashoffset: 0.000000; opacity: 1.000000" xlink:href="#coll0_5_e2a598014aee3608e0d400f9cf79fc33" x="0.000000" y="260.750000"/>
</g><g clip-path="url(#pb327cdf1be9e846eeedc56c21153d189)"><use style="fill: none; stroke: #000000; stroke-width: 0.500000; stroke-linejoin: round; stroke-linecap: butt; stroke-dasharray: 1.000000,3.000000; stroke-dashoffset: 0.000000; opacity: 1.000000" xlink:href="#coll0_6_b3d35c4c7119f282b0c81f6151515da3" x="0.000000" y="260.750000"/>
</g><g clip-path="url(#pb327cdf1be9e846eeedc56c21153d189)"><use style="fill: none; stroke: #000000; stroke-width: 0.500000; stroke-linejoin: round; stroke-linecap: butt; stroke-dasharray: 1.000000,3.000000; stroke-dashoffset: 0.000000; opacity: 1.000000" xlink:href="#coll0_7_e6d476c73ed0c89ef9cfcbbe600a8603" x="0.000000" y="260.750000"/>
</g><g clip-path="url(#pb327cdf1be9e846eeedc56c21153d189)"><use style="fill: none; stroke: #000000; stroke-width: 0.500000; stroke-linejoin: round; stroke-linecap: butt; stroke-dasharray: 1.000000,3.000000; stroke-dashoffset: 0.000000; opacity: 1.000000" xlink:href="#coll0_8_5a1af6319915600d9d2bf53c73a10375" x="0.000000" y="260.750000"/>
</g><g clip-path="url(#pb327cdf1be9e846eeedc56c21153d189)"><use style="fill: none; stroke: #000000; stroke-width: 0.500000; stroke-linejoin: round; stroke-linecap: butt; stroke-dasharray: 1.000000,3.000000; stroke-dashoffset: 0.000000; opacity: 1.000000" xlink:href="#coll0_9_8b7c259c83d6be1322539a2b964d793b" x="0.000000" y="260.750000"/>
</g><g clip-path="url(#pb327cdf1be9e846eeedc56c21153d189)"><use style="fill: none; stroke: #000000; stroke-width: 0.500000; stroke-linejoin: round; stroke-linecap: butt; stroke-dasharray: 1.000000,3.000000; stroke-dashoffset: 0.000000; opacity: 1.000000" xlink:href="#coll0_a_ca94a43cad1bedb2b921231f5d655f81" x="0.000000" y="260.750000"/>
</g><g clip-path="url(#pb327cdf1be9e846eeedc56c21153d189)"><use style="fill: none; stroke: #000000; stroke-width: 0.500000; stroke-linejoin: round; stroke-linecap: butt; stroke-dasharray: 1.000000,3.000000; stroke-dashoffset: 0.000000; opacity: 1.000000" xlink:href="#coll0_b_55258a623792c11e4c216df6a940eb16" x="0.000000" y="260.750000"/>
</g><g clip-path="url(#pb327cdf1be9e846eeedc56c21153d189)"><use style="fill: none; stroke: #000000; stroke-width: 0.500000; stroke-linejoin: round; stroke-linecap: butt; stroke-dasharray: 1.000000,3.000000; stroke-dashoffset: 0.000000; opacity: 1.000000" xlink:href="#coll0_c_e2bda4ac93156e3cfa0ee11f338fa354" x="0.000000" y="260.750000"/>
</g><g clip-path="url(#pb327cdf1be9e846eeedc56c21153d189)"><use style="fill: none; stroke: #000000; stroke-width: 0.500000; stroke-linejoin: round; stroke-linecap: butt; stroke-dasharray: 1.000000,3.000000; stroke-dashoffset: 0.000000; opacity: 1.000000" xlink:href="#coll0_d_d32946de02019062b90222ff14d5fbbe" x="0.000000" y="260.750000"/>
</g><g clip-path="url(#pb327cdf1be9e846eeedc56c21153d189)"><use style="fill: none; stroke: #000000; stroke-width: 0.500000; stroke-linejoin: round; stroke-linecap: butt; stroke-dasharray: 1.000000,3.000000; stroke-dashoffset: 0.000000; opacity: 1.000000" xlink:href="#coll0_e_3fed15f8cf57c31279508e131f533840" x="0.000000" y="260.750000"/>
</g></g>
<g id="mpl_toolkits.axisartist.axis_artist1">
<g id="patch3">
<path style="fill: none; stroke: #000000; stroke-width: 1.000000; stroke-linejoin: round; stroke-linecap: round;  opacity: 1.000000"  d="M30.565625 130.375000L309.565625 130.375000L320.447591 130.375000"/>
<path style="fill: #0000ff; stroke: #000000; stroke-width: 1.000000; stroke-linejoin: round; stroke-linecap: round;  opacity: 1.000000"  d="M315.647591 127.975000L320.447591 130.375000L315.647591 132.775000
L315.647591 127.975000z"/>
</g>
<defs><path id="m30e32995789d870ad79a2e54c91cf9c6" d="M0.000000 0.000000L0.000000 -4.000000"/></defs>
<g ><use style="fill: none; stroke: #000000; stroke-width: 0.500000; stroke-linejoin: round; stroke-linecap: butt;  opacity: 1.000000" xlink:href="#m30e32995789d870ad79a2e54c91cf9c6" x="30.565625" y="130.375000"/>
<use style="fill: none; stroke: #000000; stroke-width: 0.500000; stroke-linejoin: round; stroke-linecap: butt;  opacity: 1.000000" xlink:href="#m30e32995789d870ad79a2e54c91cf9c6" x="30.565625" y="130.375000"/>
</g><g ><use style="fill: none; stroke: #000000; stroke-width: 0.500000; stroke-linejoin: round; stroke-linecap: butt;  opacity: 1.000000" xlink:href="#m30e32995789d870ad79a2e54c91cf9c6" x="86.365625" y="130.375000"/>
<use style="fill: none; stroke: #000000; stroke-width: 0.500000; stroke-linejoin: round; stroke-linecap: butt;  opacity: 1.000000" xlink:href="#m30e32995789d870ad79a2e54c91cf9c6" x="86.365625" y="130.375000"/>
</g><g ><use style="fill: none; stroke: #000000; stroke-width: 0.500000; stroke-linejoin: round; stroke-linecap: butt;  opacity: 1.000000" xlink:href="#m30e32995789d870ad79a2e54c91cf9c6" x="142.165625" y="130.375000"/>
<use style="fill: none; stroke: #000000; stroke-width: 0.500000; stroke-linejoin: round; stroke-linecap: butt;  opacity: 1.000000" xlink:href="#m30e32995789d870ad79a2e54c91cf9c6" x="142.165625" y="130.375000"/>
</g><g ><use style="fill: none; stroke: #000000; stroke-width: 0.500000; stroke-linejoin: round; stroke-linecap: butt;  opacity: 1.000000" xlink:href="#m30e32995789d870ad79a2e54c91cf9c6" x="197.965625" y="130.375000"/>
<use style="fill: none; stroke: #000000; stroke-width: 0.500000; stroke-linejoin: round; stroke-linecap: butt;  opacity: 1.000000" xlink:href="#m30e32995789d870ad79a2e54c91cf9c6" x="197.965625" y="130.375000"/>
</g><g ><use style="fill: none; stroke: #000000; stroke-width: 0.500000; stroke-linejoin: round; stroke-linecap: butt;  opacity: 1.000000" xlink:href="#m30e32995789d870ad79a2e54c91cf9c6" x="253.765625" y="130.375000"/>
<use style="fill: none; stroke: #000000; stroke-width: 0.500000; stroke-linejoin: round; stroke-linecap: butt;  opacity: 1.000000" xlink:href="#m30e32995789d870ad79a2e54c91cf9c6" x="253.765625" y="130.375000"/>
</g><g ><use style="fill: none; stroke: #000000; stroke-width: 0.500000; stroke-linejoin: round; stroke-linecap: butt;  opacity: 1.000000" xlink:href="#m30e32995789d870ad79a2e54c91cf9c6" x="309.565625" y="130.375000"/>
<use style="fill: none; stroke: #000000; stroke-width: 0.500000; stroke-linejoin: round; stroke-linecap: butt;  opacity: 1.000000" xlink:href="#m30e32995789d870ad79a2e54c91cf9c6" x="309.565625" y="130.375000"/>
</g><g id="text1">
<defs>
<path id="c_ed3f3ed3ebfbd18bcb9c012009a68ad1" d="M19.187500 -8.296875l34.421875 0.000000l0.000000 8.296875l-46.281250 0.000000l0.000000 -8.296875q5.609375 -5.812500 15.296875 -15.593750q9.703125 -9.796875 12.187500 -12.640625q4.734375 -5.312500 6.609375 -9.000000q1.890625 -3.687500 1.890625 -7.250000q0.000000 -5.812500 -4.078125 -9.468750q-4.078125 -3.671875 -10.625000 -3.671875q-4.640625 0.000000 -9.796875 1.609375q-5.140625 1.609375 -11.000000 4.890625l0.000000 -9.968750q5.953125 -2.390625 11.125000 -3.609375q5.187500 -1.218750 9.484375 -1.218750q11.328125 0.000000 18.062500 5.671875q6.734375 5.656250 6.734375 15.125000q0.000000 4.500000 -1.687500 8.531250q-1.671875 4.015625 -6.125000 9.484375q-1.218750 1.421875 -7.765625 8.187500q-6.531250 6.765625 -18.453125 18.921875"/>
</defs>
<g style="fill: #000000; opacity: 1.000000" transform="translate(83.584375,143.281250)scale(0.120000)">
<use xlink:href="#c_ed3f3ed3ebfbd18bcb9c012009a68ad1"/>
</g>
</g>
<g id="text2">
<defs>
<path id="c_a0416418d96557a09b8c1332d34883ba" d="M37.796875 -64.312500l-24.906250 38.921875l24.906250 0.000000zM35.203125 -72.906250l12.406250 0.000000l0.000000 47.515625l10.406250 0.000000l0.000000 8.203125l-10.406250 0.000000l0.000000 17.187500l-9.812500 0.000000l0.000000 -17.187500l-32.906250 0.000000l0.000000 -9.515625z"/>
</defs>
<g style="fill: #000000; opacity: 1.000000" transform="translate(138.978125,143.281250)scale(0.120000)">
<use xlink:href="#c_a0416418d96557a09b8c1332d34883ba"/>
</g>
</g>
<g id="text3">
<defs>
<path id="c_cc8d6d580d1b10c8632f7a42cd53db8a" d="M33.015625 -40.375000q-6.640625 0.000000 -10.531250 4.546875q-3.875000 4.531250 -3.875000 12.437500q0.000000 7.859375 3.875000 12.437500q3.890625 4.562500 10.531250 4.562500q6.640625 0.000000 10.515625 -4.562500q3.875000 -4.578125 3.875000 -12.437500q0.000000 -7.906250 -3.875000 -12.437500q-3.875000 -4.546875 -10.515625 -4.546875M52.593750 -71.296875l0.000000 8.984375q-3.718750 -1.750000 -7.500000 -2.671875q-3.781250 -0.937500 -7.500000 -0.937500q-9.765625 0.000000 -14.921875 6.593750q-5.140625 6.593750 -5.875000 19.921875q2.875000 -4.250000 7.218750 -6.515625q4.359375 -2.265625 9.578125 -2.265625q10.984375 0.000000 17.359375 6.671875q6.375000 6.656250 6.375000 18.125000q0.000000 11.234375 -6.640625 18.031250q-6.640625 6.781250 -17.671875 6.781250q-12.656250 0.000000 -19.343750 -9.687500q-6.687500 -9.703125 -6.687500 -28.109375q0.000000 -17.281250 8.203125 -27.562500q8.203125 -10.281250 22.015625 -10.281250q3.718750 0.000000 7.500000 0.734375q3.781250 0.734375 7.890625 2.187500"/>
</defs>
<g style="fill: #000000; opacity: 1.000000" transform="translate(194.950000,143.281250)scale(0.120000)">
<use xlink:href="#c_cc8d6d580d1b10c8632f7a42cd53db8a"/>
</g>
</g>
<g id="text4">
<defs>
<path id="c_bef35738d52871942e50b9de9b122bab" d="M31.781250 -34.625000q-7.031250 0.000000 -11.062500 3.765625q-4.015625 3.765625 -4.015625 10.343750q0.000000 6.593750 4.015625 10.359375q4.031250 3.765625 11.062500 3.765625q7.031250 0.000000 11.078125 -3.781250q4.062500 -3.796875 4.062500 -10.343750q0.000000 -6.578125 -4.031250 -10.343750q-4.015625 -3.765625 -11.109375 -3.765625M21.921875 -38.812500q-6.343750 -1.562500 -9.890625 -5.906250q-3.531250 -4.359375 -3.531250 -10.609375q0.000000 -8.734375 6.218750 -13.812500q6.234375 -5.078125 17.062500 -5.078125q10.890625 0.000000 17.093750 5.078125q6.203125 5.078125 6.203125 13.812500q0.000000 6.250000 -3.546875 10.609375q-3.531250 4.343750 -9.828125 5.906250q7.125000 1.656250 11.093750 6.500000q3.984375 4.828125 3.984375 11.796875q0.000000 10.609375 -6.468750 16.281250q-6.468750 5.656250 -18.531250 5.656250q-12.046875 0.000000 -18.531250 -5.656250q-6.468750 -5.671875 -6.468750 -16.281250q0.000000 -6.968750 4.000000 -11.796875q4.015625 -4.843750 11.140625 -6.500000M18.312500 -54.390625q0.000000 5.656250 3.531250 8.828125q3.546875 3.171875 9.937500 3.171875q6.359375 0.000000 9.937500 -3.171875q3.593750 -3.171875 3.593750 -8.828125q0.000000 -5.671875 -3.593750 -8.843750q-3.578125 -3.171875 -9.937500 -3.171875q-6.390625 0.000000 -9.937500 3.171875q-3.531250 3.171875 -3.531250 8.843750"/>
</defs>
<g style="fill: #000000; opacity: 1.000000" transform="translate(250.765625,143.281250)scale(0.120000)">
<use xlink:href="#c_bef35738d52871942e50b9de9b122bab"/>
</g>
</g>
<g id="text5">
<defs>
<path id="c_42baa63129a918535c52adb20d687ea7" d="M12.406250 -8.296875l16.109375 0.000000l0.000000 -55.625000l-17.531250 3.515625l0.000000 -8.984375l17.437500 -3.515625l9.859375 0.000000l0.000000 64.609375l16.109375 0.000000l0.000000 8.296875l-41.984375 0.000000z"/>
<path id="c_7a2040fe3b94fcd41d0a72c84e93b115" d="M31.781250 -66.406250q-7.609375 0.000000 -11.453125 7.500000q-3.828125 7.484375 -3.828125 22.531250q0.000000 14.984375 3.828125 22.484375q3.843750 7.500000 11.453125 7.500000q7.671875 0.000000 11.500000 -7.500000q3.843750 -7.500000 3.843750 -22.484375q0.000000 -15.046875 -3.843750 -22.531250q-3.828125 -7.500000 -11.500000 -7.500000M31.781250 -74.218750q12.265625 0.000000 18.734375 9.703125q6.468750 9.687500 6.468750 28.140625q0.000000 18.406250 -6.468750 28.109375q-6.468750 9.687500 -18.734375 9.687500q-12.250000 0.000000 -18.718750 -9.687500q-6.468750 -9.703125 -6.468750 -28.109375q0.000000 -18.453125 6.468750 -28.140625q6.468750 -9.703125 18.718750 -9.703125"/>
</defs>
<g style="fill: #000000; opacity: 1.000000" transform="translate(302.979688,143.281250)scale(0.120000)">
<use xlink:href="#c_42baa63129a918535c52adb20d687ea7"/>
<use xlink:href="#c_7a2040fe3b94fcd41d0a72c84e93b115" x="63.623047"/>
</g>
</g>
<defs><path id="m3b2d125790092c17af877e29e2858cbc" d="M0.000000 0.000000L0.000000 -2.000000"/></defs>
<g ><use style="fill: none; stroke: #000000; stroke-width: 0.500000; stroke-linejoin: round; stroke-linecap: butt;  opacity: 1.000000" xlink:href="#m3b2d125790092c17af877e29e2858cbc" x="44.515625" y="130.375000"/>
<use style="fill: none; stroke: #000000; stroke-width: 0.500000; stroke-linejoin: round; stroke-linecap: butt;  opacity: 1.000000" xlink:href="#m3b2d125790092c17af877e29e2858cbc" x="44.515625" y="130.375000"/>
</g><g ><use style="fill: none; stroke: #000000; stroke-width: 0.500000; stroke-linejoin: round; stroke-linecap: butt;  opacity: 1.000000" xlink:href="#m3b2d125790092c17af877e29e2858cbc" x="58.465625" y="130.375000"/>
<use style="fill: none; stroke: #000000; stroke-width: 0.500000; stroke-linejoin: round; stroke-linecap: butt;  opacity: 1.000000" xlink:href="#m3b2d125790092c17af877e29e2858cbc" x="58.465625" y="130.375000"/>
</g><g ><use style="fill: none; stroke: #000000; stroke-width: 0.500000; stroke-linejoin: round; stroke-linecap: butt;  opacity: 1.000000" xlink:href="#m3b2d125790092c17af877e29e2858cbc" x="72.415625" y="130.375000"/>
<use style="fill: none; stroke: #000000; stroke-width: 0.500000; stroke-linejoin: round; stroke-linecap: butt;  opacity: 1.000000" xlink:href="#m3b2d125790092c17af877e29e2858cbc" x="72.415625" y="130.375000"/>
</g><g ><use style="fill: none; stroke: #000000; stroke-width: 0.500000; stroke-linejoin: round; stroke-linecap: butt;  opacity: 1.000000" xlink:href="#m3b2d125790092c17af877e29e2858cbc" x="100.315625" y="130.375000"/>
<use style="fill: none; stroke: #000000; stroke-width: 0.500000; stroke-linejoin: round; stroke-linecap: butt;  opacity: 1.000000" xlink:href="#m3b2d125790092c17af877e29e2858cbc" x="100.315625" y="130.375000"/>
</g><g ><use style="fill: none; stroke: #000000; stroke-width: 0.500000; stroke-linejoin: round; stroke-linecap: butt;  opacity: 1.000000" xlink:href="#m3b2d125790092c17af877e29e2858cbc" x="114.265625" y="130.375000"/>
<use style="fill: none; stroke: #000000; stroke-width: 0.500000; stroke-linejoin: round; stroke-linecap: butt;  opacity: 1.000000" xlink:href="#m3b2d125790092c17af877e29e2858cbc" x="114.265625" y="130.375000"/>
</g><g ><use style="fill: none; stroke: #000000; stroke-width: 0.500000; stroke-linejoin: round; stroke-linecap: butt;  opacity: 1.000000" xlink:href="#m3b2d125790092c17af877e29e2858cbc" x="128.215625" y="130.375000"/>
<use style="fill: none; stroke: #000000; stroke-width: 0.500000; stroke-linejoin: round; stroke-linecap: butt;  opacity: 1.000000" xlink:href="#m3b2d125790092c17af877e29e2858cbc" x="128.215625" y="130.375000"/>
</g><g ><use style="fill: none; stroke: #000000; stroke-width: 0.500000; stroke-linejoin: round; stroke-linecap: butt;  opacity: 1.000000" xlink:href="#m3b2d125790092c17af877e29e2858cbc" x="156.115625" y="130.375000"/>
<use style="fill: none; stroke: #000000; stroke-width: 0.500000; stroke-linejoin: round; stroke-linecap: butt;  opacity: 1.000000" xlink:href="#m3b2d125790092c17af877e29e2858cbc" x="156.115625" y="130.375000"/>
</g><g ><use style="fill: none; stroke: #000000; stroke-width: 0.500000; stroke-linejoin: round; stroke-linecap: butt;  opacity: 1.000000" xlink:href="#m3b2d125790092c17af877e29e2858cbc" x="170.065625" y="130.375000"/>
<use style="fill: none; stroke: #000000; stroke-width: 0.500000; stroke-linejoin: round; stroke-linecap: butt;  opacity: 1.000000" xlink:href="#m3b2d125790092c17af877e29e2858cbc" x="170.065625" y="130.375000"/>
</g><g ><use style="fill: none; stroke: #000000; stroke-width: 0.500000; stroke-linejoin: round; stroke-linecap: butt;  opacity: 1.000000" xlink:href="#m3b2d125790092c17af877e29e2858cbc" x="184.015625" y="130.375000"/>
<use style="fill: none; stroke: #000000; stroke-width: 0.500000; stroke-linejoin: round; stroke-linecap: butt;  opacity: 1.000000" xlink:href="#m3b2d125790092c17af877e29e2858cbc" x="184.015625" y="130.375000"/>
</g><g ><use style="fill: none; stroke: #000000; stroke-width: 0.500000; stroke-linejoin: round; stroke-linecap: butt;  opacity: 1.000000" xlink:href="#m3b2d125790092c17af877e29e2858cbc" x="211.915625" y="130.375000"/>
<use style="fill: none; stroke: #000000; stroke-width: 0.500000; stroke-linejoin: round; stroke-linecap: butt;  opacity: 1.000000" xlink:href="#m3b2d125790092c17af877e29e2858cbc" x="211.915625" y="130.375000"/>
</g><g ><use style="fill: none; stroke: #000000; stroke-width: 0.500000; stroke-linejoin: round; stroke-linecap: butt;  opacity: 1.000000" xlink:href="#m3b2d125790092c17af877e29e2858cbc" x="225.865625" y="130.375000"/>
<use style="fill: none; stroke: #000000; stroke-width: 0.500000; stroke-linejoin: round; stroke-linecap: butt;  opacity: 1.000000" xlink:href="#m3b2d125790092c17af877e29e2858cbc" x="225.865625" y="130.375000"/>
</g><g ><use style="fill: none; stroke: #000000; stroke-width: 0.500000; stroke-linejoin: round; stroke-linecap: butt;  opacity: 1.000000" xlink:href="#m3b2d125790092c17af877e29e2858cbc" x="239.815625" y="130.375000"/>
<use style="fill: none; stroke: #000000; stroke-width: 0.500000; stroke-linejoin: round; stroke-linecap: butt;  opacity: 1.000000" xlink:href="#m3b2d125790092c17af877e29e2858cbc" x="239.815625" y="130.375000"/>
</g><g ><use style="fill: none; stroke: #000000; stroke-width: 0.500000; stroke-linejoin: round; stroke-linecap: butt;  opacity: 1.000000" xlink:href="#m3b2d125790092c17af877e29e2858cbc" x="267.715625" y="130.375000"/>
<use style="fill: none; stroke: #000000; stroke-width: 0.500000; stroke-linejoin: round; stroke-linecap: butt;  opacity: 1.000000" xlink:href="#m3b2d125790092c17af877e29e2858cbc" x="267.715625" y="130.375000"/>
</g><g ><use style="fill: none; stroke: #000000; stroke-width: 0.500000; stroke-linejoin: round; stroke-linecap: butt;  opacity: 1.000000" xlink:href="#m3b2d125790092c17af877e29e2858cbc" x="281.665625" y="130.375000"/>
<use style="fill: none; stroke: #000000; stroke-width: 0.500000; stroke-linejoin: round; stroke-linecap: butt;  opacity: 1.000000" xlink:href="#m3b2d125790092c17af877e29e2858cbc" x="281.665625" y="130.375000"/>
</g><g ><use style="fill: none; stroke: #000000; stroke-width: 0.500000; stroke-linejoin: round; stroke-linecap: butt;  opacity: 1.000000" xlink:href="#m3b2d125790092c17af877e29e2858cbc" x="295.615625" y="130.375000"/>
<use style="fill: none; stroke: #000000; stroke-width: 0.500000; stroke-linejoin: round; stroke-linecap: butt;  opacity: 1.000000" xlink:href="#m3b2d125790092c17af877e29e2858cbc" x="295.615625" y="130.375000"/>
</g></g>
<g id="mpl_toolkits.axisartist.axis_artist2">
<g id="patch4">
<path style="fill: none; stroke: #000000; stroke-width: 1.000000; stroke-linejoin: round; stroke-linecap: round;  opacity: 1.000000"  d="M30.565625 245.575000L30.565625 15.175000L30.565625 4.293034"/>
<path style="fill: #0000ff; stroke: #000000; stroke-width: 1.000000; stroke-linejoin: round; stroke-linecap: round;  opacity: 1.000000"  d="M28.165625 9.093034L30.565625 4.293034L32.965625 9.093034
L28.165625 9.093034z"/>
</g>
<defs><path id="m3400efa6b1638b3fea9e19e898273957" d="M0.000000 0.000000L4.000000 0.000000"/></defs>
<g ><use style="fill: none; stroke: #000000; stroke-width: 0.500000; stroke-linejoin: round; stroke-linecap: butt;  opacity: 1.000000" xlink:href="#m3400efa6b1638b3fea9e19e898273957" x="30.565625" y="245.575000"/>
<use style="fill: none; stroke: #000000; stroke-width: 0.500000; stroke-linejoin: round; stroke-linecap: butt;  opacity: 1.000000" xlink:href="#m3400efa6b1638b3fea9e19e898273957" x="30.565625" y="245.575000"/>
</g><g ><use style="fill: none; stroke: #000000; stroke-width: 0.500000; stroke-linejoin: round; stroke-linecap: butt;  opacity: 1.000000" xlink:href="#m3400efa6b1638b3fea9e19e898273957" x="30.565625" y="216.775000"/>
<use style="fill: none; stroke: #000000; stroke-width: 0.500000; stroke-linejoin: round; stroke-linecap: butt;  opacity: 1.000000" xlink:href="#m3400efa6b1638b3fea9e19e898273957" x="30.565625" y="216.775000"/>
</g><g ><use style="fill: none; stroke: #000000; stroke-width: 0.500000; stroke-linejoin: round; stroke-linecap: butt;  opacity: 1.000000" xlink:href="#m3400efa6b1638b3fea9e19e898273957" x="30.565625" y="187.975000"/>
<use style="fill: none; stroke: #000000; stroke-width: 0.500000; stroke-linejoin: round; stroke-linecap: butt;  opacity: 1.000000" xlink:href="#m3400efa6b1638b3fea9e19e898273957" x="30.565625" y="187.975000"/>
</g><g ><use style="fill: none; stroke: #000000; stroke-width: 0.500000; stroke-linejoin: round; stroke-linecap: butt;  opacity: 1.000000" xlink:href="#m3400efa6b1638b3fea9e19e898273957" x="30.565625" y="159.175000"/>
<use style="fill: none; stroke: #000000; stroke-width: 0.500000; stroke-linejoin: round; stroke-linecap: butt;  opacity: 1.000000" xlink:href="#m3400efa6b1638b3fea9e19e898273957" x="30.565625" y="159.175000"/>
</g><g ><use style="fill: none; stroke: #000000; stroke-width: 0.500000; stroke-linejoin: round; stroke-linecap: butt;  opacity: 1.000000" xlink:href="#m3400efa6b1638b3fea9e19e898273957" x="30.565625" y="130.375000"/>
<use style="fill: none; stroke: #000000; stroke-width: 0.500000; stroke-linejoin: round; stroke-linecap: butt;  opacity: 1.000000" xlink:href="#m3400efa6b1638b3fea9e19e898273957" x="30.565625" y="130.375000"/>
</g><g ><use style="fill: none; stroke: #000000; stroke-width: 0.500000; stroke-linejoin: round; stroke-linecap: butt;  opacity: 1.000000" xlink:href="#m3400efa6b1638b3fea9e19e898273957" x="30.565625" y="101.575000"/>
<use style="fill: none; stroke: #000000; stroke-width: 0.500000; stroke-linejoin: round; stroke-linecap: butt;  opacity: 1.000000" xlink:href="#m3400efa6b1638b3fea9e19e898273957" x="30.565625" y="101.575000"/>
</g><g ><use style="fill: none; stroke: #000000; stroke-width: 0.500000; stroke-linejoin: round; stroke-linecap: butt;  opacity: 1.000000" xlink:href="#m3400efa6b1638b3fea9e19e898273957" x="30.565625" y="72.775000"/>
<use style="fill: none; stroke: #000000; stroke-width: 0.500000; stroke-linejoin: round; stroke-linecap: butt;  opacity: 1.000000" xlink:href="#m3400efa6b1638b3fea9e19e898273957" x="30.565625" y="72.775000"/>
</g><g ><use style="fill: none; stroke: #000000; stroke-width: 0.500000; stroke-linejoin: round; stroke-linecap: butt;  opacity: 1.000000" xlink:href="#m3400efa6b1638b3fea9e19e898273957" x="30.565625" y="43.975000"/>
<use style="fill: none; stroke: #000000; stroke-width: 0.500000; stroke-linejoin: round; stroke-linecap: butt;  opacity: 1.000000" xlink:href="#m3400efa6b1638b3fea9e19e898273957" x="30.565625" y="43.975000"/>
</g><g ><use style="fill: none; stroke: #000000; stroke-width: 0.500000; stroke-linejoin: round; stroke-linecap: butt;  opacity: 1.000000" xlink:href="#m3400efa6b1638b3fea9e19e898273957" x="30.565625" y="15.175000"/>
<use style="fill: none; stroke: #000000; stroke-width: 0.500000; stroke-linejoin: round; stroke-linecap: butt;  opacity: 1.000000" xlink:href="#m3400efa6b1638b3fea9e19e898273957" x="30.565625" y="15.175000"/>
</g><g id="text6">
<defs>
<path id="c_6a8d56c819c37117ab4cf023bec22a5a" d="M10.593750 -35.500000l62.593750 0.000000l0.000000 8.296875l-62.593750 0.000000z"/>
</defs>
<g style="fill: #000000; opacity: 1.000000" transform="translate(10.800000,249.950000)scale(0.120000)">
<use xlink:href="#c_6a8d56c819c37117ab4cf023bec22a5a"/>
<use xlink:href="#c_a0416418d96557a09b8c1332d34883ba" x="83.789062"/>
</g>
</g>
<g id="text7">
<defs>
<path id="c_3dcfa38a02242cb63ec6726c6e70be7a" d="M40.578125 -39.312500q7.078125 1.515625 11.046875 6.312500q3.984375 4.781250 3.984375 11.812500q0.000000 10.781250 -7.421875 16.703125q-7.421875 5.906250 -21.093750 5.906250q-4.578125 0.000000 -9.437500 -0.906250q-4.859375 -0.906250 -10.031250 -2.718750l0.000000 -9.515625q4.093750 2.390625 8.968750 3.609375q4.890625 1.218750 10.218750 1.218750q9.265625 0.000000 14.125000 -3.656250q4.859375 -3.656250 4.859375 -10.640625q0.000000 -6.453125 -4.515625 -10.078125q-4.515625 -3.640625 -12.562500 -3.640625l-8.500000 0.000000l0.000000 -8.109375l8.890625 0.000000q7.265625 0.000000 11.125000 -2.906250q3.859375 -2.906250 3.859375 -8.375000q0.000000 -5.609375 -3.984375 -8.609375q-3.968750 -3.015625 -11.390625 -3.015625q-4.062500 0.000000 -8.703125 0.890625q-4.640625 0.875000 -10.203125 2.718750l0.000000 -8.781250q5.625000 -1.562500 10.531250 -2.343750q4.906250 -0.781250 9.250000 -0.781250q11.234375 0.000000 17.765625 5.109375q6.546875 5.093750 6.546875 13.781250q0.000000 6.062500 -3.468750 10.234375q-3.468750 4.171875 -9.859375 5.781250"/>
</defs>
<g style="fill: #000000; opacity: 1.000000" transform="translate(11.096875,221.142187)scale(0.120000)">
<use xlink:href="#c_6a8d56c819c37117ab4cf023bec22a5a"/>
<use xlink:href="#c_3dcfa38a02242cb63ec6726c6e70be7a" x="83.789062"/>
</g>
</g>
<g id="text8">
<g style="fill: #000000; opacity: 1.000000" transform="translate(11.331250,192.428125)scale(0.120000)">
<use xlink:href="#c_6a8d56c819c37117ab4cf023bec22a5a"/>
<use xlink:href="#c_ed3f3ed3ebfbd18bcb9c012009a68ad1" x="83.789062"/>
</g>
</g>
<g id="text9">
<g style="fill: #000000; opacity: 1.000000" transform="translate(11.237500,163.550000)scale(0.120000)">
<use xlink:href="#c_6a8d56c819c37117ab4cf023bec22a5a"/>
<use xlink:href="#c_42baa63129a918535c52adb20d687ea7" x="83.789062"/>
</g>
</g>
<g id="text10">
<g style="fill: #000000; opacity: 1.000000" transform="translate(20.518750,134.742187)scale(0.120000)">
<use xlink:href="#c_7a2040fe3b94fcd41d0a72c84e93b115"/>
</g>
</g>
<g id="text11">
<g style="fill: #000000; opacity: 1.000000" transform="translate(21.346875,105.950000)scale(0.120000)">
<use xlink:href="#c_42baa63129a918535c52adb20d687ea7"/>
</g>
</g>
<g id="text12">
<g style="fill: #000000; opacity: 1.000000" transform="translate(21.003125,77.228125)scale(0.120000)">
<use xlink:href="#c_ed3f3ed3ebfbd18bcb9c012009a68ad1"/>
</g>
</g>
<g id="text13">
<g style="fill: #000000; opacity: 1.000000" transform="translate(20.815625,48.342187)scale(0.120000)">
<use xlink:href="#c_3dcfa38a02242cb63ec6726c6e70be7a"/>
</g>
</g>
<g id="text14">
<g style="fill: #000000; opacity: 1.000000" transform="translate(20.190625,19.550000)scale(0.120000)">
<use xlink:href="#c_a0416418d96557a09b8c1332d34883ba"/>
</g>
</g>
<defs><path id="mb39cfcf7402899e54c4d755745537394" d="M0.000000 0.000000L2.000000 0.000000"/></defs>
<g ><use style="fill: none; stroke: #000000; stroke-width: 0.500000; stroke-linejoin: round; stroke-linecap: butt;  opacity: 1.000000" xlink:href="#mb39cfcf7402899e54c4d755745537394" x="30.565625" y="238.375000"/>
<use style="fill: none; stroke: #000000; stroke-width: 0.500000; stroke-linejoin: round; stroke-linecap: butt;  opacity: 1.000000" xlink:href="#mb39cfcf7402899e54c4d755745537394" x="30.565625" y="238.375000"/>
</g><g ><use style="fill: none; stroke: #000000; stroke-width: 0.500000; stroke-linejoin: round; stroke-linecap: butt;  opacity: 1.000000" xlink:href="#mb39cfcf7402899e54c4d755745537394" x="30.565625" y="231.175000"/>
<use style="fill: none; stroke: #000000; stroke-width: 0.500000; stroke-linejoin: round; stroke-linecap: butt;  opacity: 1.000000" xlink:href="#mb39cfcf7402899e54c4d755745537394" x="30.565625" y="231.175000"/>
</g><g ><use style="fill: none; stroke: #000000; stroke-width: 0.500000; stroke-linejoin: round; stroke-linecap: butt;  opacity: 1.000000" xlink:href="#mb39cfcf7402899e54c4d755745537394" x="30.565625" y="223.975000"/>
<use style="fill: none; stroke: #000000; stroke-width: 0.500000; stroke-linejoin: round; stroke-linecap: butt;  opacity: 1.000000" xlink:href="#mb39cfcf7402899e54c4d755745537394" x="30.565625" y="223.975000"/>
</g><g ><use style="fill: none; stroke: #000000; stroke-width: 0.500000; stroke-linejoin: round; stroke-linecap: butt;  opacity: 1.000000" xlink:href="#mb39cfcf7402899e54c4d755745537394" x="30.565625" y="209.575000"/>
<use style="fill: none; stroke: #000000; stroke-width: 0.500000; stroke-linejoin: round; stroke-linecap: butt;  opacity: 1.000000" xlink:href="#mb39cfcf7402899e54c4d755745537394" x="30.565625" y="209.575000"/>
</g><g ><use style="fill: none; stroke: #000000; stroke-width: 0.500000; stroke-linejoin: round; stroke-linecap: butt;  opacity: 1.000000" xlink:href="#mb39cfcf7402899e54c4d755745537394" x="30.565625" y="202.375000"/>
<use style="fill: none; stroke: #000000; stroke-width: 0.500000; stroke-linejoin: round; stroke-linecap: butt;  opacity: 1.000000" xlink:href="#mb39cfcf7402899e54c4d755745537394" x="30.565625" y="202.375000"/>
</g><g ><use style="fill: none; stroke: #000000; stroke-width: 0.500000; stroke-linejoin: round; stroke-linecap: butt;  opacity: 1.000000" xlink:href="#mb39cfcf7402899e54c4d755745537394" x="30.565625" y="195.175000"/>
<use style="fill: none; stroke: #000000; stroke-width: 0.500000; stroke-linejoin: round; stroke-linecap: butt;  opacity: 1.000000" xlink:href="#mb39cfcf7402899e54c4d755745537394" x="30.565625" y="195.175000"/>
</g><g ><use style="fill: none; stroke: #000000; stroke-width: 0.500000; stroke-linejoin: round; stroke-linecap: butt;  opacity: 1.000000" xlink:href="#mb39cfcf7402899e54c4d755745537394" x="30.565625" y="180.775000"/>
<use style="fill: none; stroke: #000000; stroke-width: 0.500000; stroke-linejoin: round; stroke-linecap: butt;  opacity: 1.000000" xlink:href="#mb39cfcf7402899e54c4d755745537394" x="30.565625" y="180.775000"/>
</g><g ><use style="fill: none; stroke: #000000; stroke-width: 0.500000; stroke-linejoin: round; stroke-linecap: butt;  opacity: 1.000000" xlink:href="#mb39cfcf7402899e54c4d755745537394" x="30.565625" y="173.575000"/>
<use style="fill: none; stroke: #000000; stroke-width: 0.500000; stroke-linejoin: round; stroke-linecap: butt;  opacity: 1.000000" xlink:href="#mb39cfcf7402899e54c4d755745537394" x="30.565625" y="173.575000"/>
</g><g ><use style="fill: none; stroke: #000000; stroke-width: 0.500000; stroke-linejoin: round; stroke-linecap: butt;  opacity: 1.000000" xlink:href="#mb39cfcf7402899e54c4d755745537394" x="30.565625" y="166.375000"/>
<use style="fill: none; stroke: #000000; stroke-width: 0.500000; stroke-linejoin: round; stroke-linecap: butt;  opacity: 1.000000" xlink:href="#mb39cfcf7402899e54c4d755745537394" x="30.565625" y="166.375000"/>
</g><g ><use style="fill: none; stroke: #000000; stroke-width: 0.500000; stroke-linejoin: round; stroke-linecap: butt;  opacity: 1.000000" xlink:href="#mb39cfcf7402899e54c4d755745537394" x="30.565625" y="151.975000"/>
<use style="fill: none; stroke: #000000; stroke-width: 0.500000; stroke-linejoin: round; stroke-linecap: butt;  opacity: 1.000000" xlink:href="#mb39cfcf7402899e54c4d755745537394" x="30.565625" y="151.975000"/>
</g><g ><use style="fill: none; stroke: #000000; stroke-width: 0.500000; stroke-linejoin: round; stroke-linecap: butt;  opacity: 1.000000" xlink:href="#mb39cfcf7402899e54c4d755745537394" x="30.565625" y="144.775000"/>
<use style="fill: none; stroke: #000000; stroke-width: 0.500000; stroke-linejoin: round; stroke-linecap: butt;  opacity: 1.000000" xlink:href="#mb39cfcf7402899e54c4d755745537394" x="30.565625" y="144.775000"/>
</g><g ><use style="fill: none; stroke: #000000; stroke-width: 0.500000; stroke-linejoin: round; stroke-linecap: butt;  opacity: 1.000000" xlink:href="#mb39cfcf7402899e54c4d755745537394" x="30.565625" y="137.575000"/>
<use style="fill: none; stroke: #000000; stroke-width: 0.500000; stroke-linejoin: round; stroke-linecap: butt;  opacity: 1.000000" xlink:href="#mb39cfcf7402899e54c4d755745537394" x="30.565625" y="137.575000"/>
</g><g ><use style="fill: none; stroke: #000000; stroke-width: 0.500000; stroke-linejoin: round; stroke-linecap: butt;  opacity: 1.000000" xlink:href="#mb39cfcf7402899e54c4d755745537394" x="30.565625" y="123.175000"/>
<use style="fill: none; stroke: #000000; stroke-width: 0.500000; stroke-linejoin: round; stroke-linecap: butt;  opacity: 1.000000" xlink:href="#mb39cfcf7402899e54c4d755745537394" x="30.565625" y="123.175000"/>
</g><g ><use style="fill: none; stroke: #000000; stroke-width: 0.500000; stroke-linejoin: round; stroke-linecap: butt;  opacity: 1.000000" xlink:href="#mb39cfcf7402899e54c4d755745537394" x="30.565625" y="115.975000"/>
<use style="fill: none; stroke: #000000; stroke-width: 0.500000; stroke-linejoin: round; stroke-linecap: butt;  opacity: 1.000000" xlink:href="#mb39cfcf7402899e54c4d755745537394" x="30.565625" y="115.975000"/>
</g><g ><use style="fill: none; stroke: #000000; stroke-width: 0.500000; stroke-linejoin: round; stroke-linecap: butt;  opacity: 1.000000" xlink:href="#mb39cfcf7402899e54c4d755745537394" x="30.565625" y="108.775000"/>
<use style="fill: none; stroke: #000000; stroke-width: 0.500000; stroke-linejoin: round; stroke-linecap: butt;  opacity: 1.000000" xlink:href="#mb39cfcf7402899e54c4d755745537394" x="30.565625" y="108.775000"/>
</g><g ><use style="fill: none; stroke: #000000; stroke-width: 0.500000; stroke-linejoin: round; stroke-linecap: butt;  opacity: 1.000000" xlink:href="#mb39cfcf7402899e54c4d755745537394" x="30.565625" y="94.375000"/>
<use style="fill: none; stroke: #000000; stroke-width: 0.500000; stroke-linejoin: round; stroke-linecap: butt;  opacity: 1.000000" xlink:href="#mb39cfcf7402899e54c4d755745537394" x="30.565625" y="94.375000"/>
</g><g ><use style="fill: none; stroke: #000000; stroke-width: 0.500000; stroke-linejoin: round; stroke-linecap: butt;  opacity: 1.000000" xlink:href="#mb39cfcf7402899e54c4d755745537394" x="30.565625" y="87.175000"/>
<use style="fill: none; stroke: #000000; stroke-width: 0.500000; stroke-linejoin: round; stroke-linecap: butt;  opacity: 1.000000" xlink:href="#mb39cfcf7402899e54c4d755745537394" x="30.565625" y="87.175000"/>
</g><g ><use style="fill: none; stroke: #000000; stroke-width: 0.500000; stroke-linejoin: round; stroke-linecap: butt;  opacity: 1.000000" xlink:href="#mb39cfcf7402899e54c4d755745537394" x="30.565625" y="79.975000"/>
<use style="fill: none; stroke: #000000; stroke-width: 0.500000; stroke-linejoin: round; stroke-linecap: butt;  opacity: 1.000000" xlink:href="#mb39cfcf7402899e54c4d755745537394" x="30.565625" y="79.975000"/>
</g><g ><use style="fill: none; stroke: #000000; stroke-width: 0.500000; stroke-linejoin: round; stroke-linecap: butt;  opacity: 1.000000" xlink:href="#mb39cfcf7402899e54c4d755745537394" x="30.565625" y="65.575000"/>
<use style="fill: none; stroke: #000000; stroke-width: 0.500000; stroke-linejoin: round; stroke-linecap: butt;  opacity: 1.000000" xlink:href="#mb39cfcf7402899e54c4d755745537394" x="30.565625" y="65.575000"/>
</g><g ><use style="fill: none; stroke: #000000; stroke-width: 0.500000; stroke-linejoin: round; stroke-linecap: butt;  opacity: 1.000000" xlink:href="#mb39cfcf7402899e54c4d755745537394" x="30.565625" y="58.375000"/>
<use style="fill: none; stroke: #000000; stroke-width: 0.500000; stroke-linejoin: round; stroke-linecap: butt;  opacity: 1.000000" xlink:href="#mb39cfcf7402899e54c4d755745537394" x="30.565625" y="58.375000"/>
</g><g ><use style="fill: none; stroke: #000000; stroke-width: 0.500000; stroke-linejoin: round; stroke-linecap: butt;  opacity: 1.000000" xlink:href="#mb39cfcf7402899e54c4d755745537394" x="30.565625" y="51.175000"/>
<use style="fill: none; stroke: #000000; stroke-width: 0.500000; stroke-linejoin: round; stroke-linecap: butt;  opacity: 1.000000" xlink:href="#mb39cfcf7402899e54c4d755745537394" x="30.565625" y="51.175000"/>
</g><g ><use style="fill: none; stroke: #000000; stroke-width: 0.500000; stroke-linejoin: round; stroke-linecap: butt;  opacity: 1.000000" xlink:href="#mb39cfcf7402899e54c4d755745537394" x="30.565625" y="36.775000"/>
<use style="fill: none; stroke: #000000; stroke-width: 0.500000; stroke-linejoin: round; stroke-linecap: butt;  opacity: 1.000000" xlink:href="#mb39cfcf7402899e54c4d755745537394" x="30.565625" y="36.775000"/>
</g><g ><use style="fill: none; stroke: #000000; stroke-width: 0.500000; stroke-linejoin: round; stroke-linecap: butt;  opacity: 1.000000" xlink:href="#mb39cfcf7402899e54c4d755745537394" x="30.565625" y="29.575000"/>
<use style="fill: none; stroke: #000000; stroke-width: 0.500000; stroke-linejoin: round; stroke-linecap: butt;  opacity: 1.000000" xlink:href="#mb39cfcf7402899e54c4d755745537394" x="30.565625" y="29.575000"/>
</g><g ><use style="fill: none; stroke: #000000; stroke-width: 0.500000; stroke-linejoin: round; stroke-linecap: butt;  opacity: 1.000000" xlink:href="#mb39cfcf7402899e54c4d755745537394" x="30.565625" y="22.375000"/>
<use style="fill: none; stroke: #000000; stroke-width: 0.500000; stroke-linejoin: round; stroke-linecap: butt;  opacity: 1.000000" xlink:href="#mb39cfcf7402899e54c4d755745537394" x="30.565625" y="22.375000"/>
</g></g>
<g id="text15">
<defs>
<path id="c_277960698c3e9ebfcde4d2161536ce57" d="M7.812500 -2.875000q1.765625 1.359375 4.984375 1.359375q3.125000 0.000000 5.515625 -3.000000q2.390625 -3.000000 3.265625 -6.562500l4.546875 -17.734375q1.078125 -4.828125 1.078125 -6.593750q0.000000 -2.484375 -1.390625 -4.343750q-1.390625 -1.859375 -3.890625 -1.859375q-3.171875 0.000000 -5.953125 1.984375q-2.781250 1.984375 -4.687500 5.031250q-1.906250 3.046875 -2.687500 6.171875q-0.187500 0.640625 -0.781250 0.640625l-1.218750 0.000000q-0.781250 0.000000 -0.781250 -0.937500l0.000000 -0.281250q0.968750 -3.718750 3.312500 -7.250000q2.343750 -3.546875 5.734375 -5.734375q3.406250 -2.203125 7.265625 -2.203125q3.656250 0.000000 6.609375 1.953125q2.953125 1.953125 4.171875 5.312500q1.718750 -3.062500 4.375000 -5.156250q2.656250 -2.109375 5.828125 -2.109375q2.156250 0.000000 4.390625 0.765625q2.250000 0.750000 3.671875 2.312500q1.421875 1.562500 1.421875 3.906250q0.000000 2.531250 -1.640625 4.375000q-1.640625 1.828125 -4.171875 1.828125q-1.609375 0.000000 -2.687500 -1.031250q-1.078125 -1.031250 -1.078125 -2.593750q0.000000 -2.093750 1.437500 -3.671875q1.453125 -1.593750 3.453125 -1.890625q-1.812500 -1.421875 -4.984375 -1.421875q-3.218750 0.000000 -5.593750 2.984375q-2.359375 2.984375 -3.343750 6.640625l-4.390625 17.671875q-1.078125 4.015625 -1.078125 6.593750q0.000000 2.546875 1.437500 4.375000q1.437500 1.828125 3.843750 1.828125q4.687500 0.000000 8.359375 -4.125000q3.687500 -4.125000 4.859375 -9.062500q0.203125 -0.578125 0.781250 -0.578125l1.234375 0.000000q0.390625 0.000000 0.625000 0.265625q0.250000 0.265625 0.250000 0.609375q0.000000 0.093750 -0.093750 0.296875q-1.421875 5.953125 -5.968750 10.593750q-4.531250 4.640625 -10.250000 4.640625q-3.656250 0.000000 -6.609375 -1.968750q-2.953125 -1.984375 -4.187500 -5.359375q-1.562500 2.937500 -4.328125 5.140625q-2.750000 2.187500 -5.875000 2.187500q-2.140625 0.000000 -4.421875 -0.765625q-2.265625 -0.750000 -3.687500 -2.312500q-1.406250 -1.562500 -1.406250 -3.953125q0.000000 -2.343750 1.625000 -4.265625q1.640625 -1.937500 4.093750 -1.937500q1.656250 0.000000 2.781250 1.000000q1.125000 1.000000 1.125000 2.609375q0.000000 2.109375 -1.406250 3.671875q-1.390625 1.562500 -3.484375 1.953125"/>
</defs>
<g id="mathtext1">
<g style="fill: #000000" transform="translate(309.565625,125.615000)">
<use xlink:href="#c_277960698c3e9ebfcde4d2161536ce57" transform="translate(0.000000,-1.375000)scale(0.150000)"/>
</g>
</g>
</g>
<g id="text16">
<defs>
<path id="c_b1ccbd40de9466de4ee940ca0731021f" d="M8.406250 14.312500q2.093750 3.609375 7.312500 3.609375q4.734375 0.000000 8.203125 -3.328125q3.468750 -3.312500 5.593750 -8.031250q2.125000 -4.703125 3.296875 -9.640625q-4.437500 4.203125 -9.625000 4.203125q-3.953125 0.000000 -6.734375 -1.359375q-2.781250 -1.375000 -4.328125 -4.078125q-1.531250 -2.718750 -1.531250 -6.578125q0.000000 -3.265625 0.875000 -6.703125q0.890625 -3.453125 2.468750 -7.671875q1.593750 -4.234375 2.765625 -7.359375q1.312500 -3.656250 1.312500 -6.000000q0.000000 -2.984375 -2.187500 -2.984375q-3.968750 0.000000 -6.531250 4.078125q-2.562500 4.078125 -3.781250 9.109375q-0.187500 0.640625 -0.828125 0.640625l-1.171875 0.000000q-0.828125 0.000000 -0.828125 -0.937500l0.000000 -0.281250q1.609375 -5.968750 4.921875 -10.578125q3.328125 -4.609375 8.406250 -4.609375q3.562500 0.000000 6.031250 2.343750q2.468750 2.343750 2.468750 5.953125q0.000000 1.859375 -0.828125 3.906250q-0.437500 1.218750 -2.000000 5.328125q-1.562500 4.093750 -2.406250 6.781250q-0.828125 2.687500 -1.359375 5.281250q-0.531250 2.578125 -0.531250 5.171875q0.000000 3.312500 1.406250 5.609375q1.421875 2.296875 4.500000 2.296875q6.203125 0.000000 11.125000 -7.562500l7.578125 -30.812500q0.328125 -1.328125 1.546875 -2.265625q1.234375 -0.953125 2.640625 -0.953125q1.218750 0.000000 2.125000 0.781250q0.906250 0.781250 0.906250 2.046875q0.000000 0.578125 -0.093750 0.781250l-9.921875 39.796875q-1.312500 5.125000 -4.828125 9.812500q-3.515625 4.687500 -8.468750 7.546875q-4.953125 2.859375 -10.328125 2.859375q-2.593750 0.000000 -5.140625 -1.015625q-2.531250 -1.000000 -4.093750 -3.000000q-1.562500 -2.000000 -1.562500 -4.687500q0.000000 -2.734375 1.609375 -4.734375q1.625000 -2.000000 4.296875 -2.000000q1.625000 0.000000 2.718750 1.000000q1.093750 1.000000 1.093750 2.609375q0.000000 2.296875 -1.718750 4.000000q-1.703125 1.718750 -3.984375 1.718750q-0.109375 -0.046875 -0.203125 -0.078125q-0.093750 -0.015625 -0.187500 -0.015625"/>
</defs>
<g id="mathtext2">
<g style="fill: #000000" transform="translate(36.145625,33.575000)">
<use xlink:href="#c_b1ccbd40de9466de4ee940ca0731021f" transform="translate(0.000000,-4.375000)scale(0.150000)"/>
</g>
</g>
</g>
<g id="text17">
<defs>
<path id="c_7bbc93c01755cdeb977d08bdfb9ce616" d="M7.515625 -13.281250q-0.828125 0.000000 -1.375000 -0.625000q-0.531250 -0.640625 -0.531250 -1.375000q0.000000 -0.828125 0.531250 -1.406250q0.546875 -0.593750 1.375000 -0.593750l62.796875 0.000000q0.734375 0.000000 1.265625 0.593750q0.546875 0.578125 0.546875 1.406250q0.000000 0.734375 -0.546875 1.375000q-0.531250 0.625000 -1.265625 0.625000zM7.515625 -32.718750q-0.828125 0.000000 -1.375000 -0.578125q-0.531250 -0.593750 -0.531250 -1.421875q0.000000 -0.734375 0.531250 -1.359375q0.546875 -0.640625 1.375000 -0.640625l62.796875 0.000000q0.734375 0.000000 1.265625 0.640625q0.546875 0.625000 0.546875 1.359375q0.000000 0.828125 -0.546875 1.421875q-0.531250 0.578125 -1.265625 0.578125z"/>
<path id="c_a764f622c6f118158a993ace88ddaf97" d="M3.078125 -0.000000l0.000000 -3.515625q3.421875 0.000000 5.609375 -0.531250q2.203125 -0.546875 2.203125 -2.640625l0.000000 -52.500000q0.000000 -2.671875 -0.812500 -3.875000q-0.796875 -1.203125 -2.312500 -1.468750q-1.515625 -0.265625 -4.687500 -0.265625l0.000000 -3.515625l14.843750 -1.078125l0.000000 62.703125q0.000000 2.093750 2.187500 2.640625q2.203125 0.531250 5.578125 0.531250l0.000000 3.515625z"/>
<path id="c_3f72f0e1b2c8acfc5e912f2e891b93aa" d="M25.000000 1.125000q-6.000000 0.000000 -11.140625 -3.046875q-5.125000 -3.062500 -8.109375 -8.187500q-2.968750 -5.125000 -2.968750 -11.187500q0.000000 -4.578125 1.640625 -8.828125q1.640625 -4.250000 4.687500 -7.593750q3.046875 -3.343750 7.093750 -5.218750q4.062500 -1.890625 8.796875 -1.890625q6.156250 0.000000 11.203125 3.250000q5.062500 3.250000 7.984375 8.703125q2.937500 5.437500 2.937500 11.578125q0.000000 6.015625 -2.984375 11.171875q-2.984375 5.140625 -8.093750 8.203125q-5.093750 3.046875 -11.046875 3.046875M25.000000 -1.812500q8.015625 0.000000 10.687500 -5.796875q2.687500 -5.812500 2.687500 -14.796875q0.000000 -5.031250 -0.531250 -8.328125q-0.531250 -3.296875 -2.343750 -5.984375q-1.125000 -1.656250 -2.859375 -2.906250q-1.734375 -1.250000 -3.671875 -1.906250q-1.921875 -0.656250 -3.968750 -0.656250q-3.125000 0.000000 -5.937500 1.421875q-2.796875 1.406250 -4.656250 4.046875q-1.859375 2.828125 -2.375000 6.234375q-0.500000 3.390625 -0.500000 8.078125q0.000000 5.609375 0.968750 10.078125q0.984375 4.468750 3.937500 7.500000q2.953125 3.015625 8.562500 3.015625"/>
<path id="c_3877d6afdbe473a50acdfd061b4e65d6" d="M2.781250 7.812500q0.000000 -3.562500 2.578125 -6.234375q2.593750 -2.656250 6.171875 -3.781250q-2.015625 -1.515625 -3.062500 -3.796875q-1.046875 -2.296875 -1.046875 -4.890625q0.000000 -4.687500 2.984375 -8.296875q-4.593750 -4.500000 -4.593750 -10.312500q0.000000 -3.125000 1.343750 -5.859375q1.343750 -2.734375 3.734375 -4.734375q2.390625 -2.000000 5.312500 -3.046875q2.937500 -1.046875 6.015625 -1.046875q5.953125 0.000000 10.687500 3.468750q2.062500 -2.203125 4.859375 -3.390625q2.812500 -1.203125 5.843750 -1.203125q2.140625 0.000000 3.500000 1.546875q1.375000 1.531250 1.375000 3.671875q0.000000 1.218750 -0.937500 2.156250q-0.921875 0.921875 -2.140625 0.921875q-1.265625 0.000000 -2.203125 -0.921875q-0.921875 -0.937500 -0.921875 -2.156250q0.000000 -1.843750 1.218750 -2.578125q-5.171875 0.000000 -8.875000 3.562500q1.796875 1.796875 2.890625 4.421875q1.109375 2.609375 1.109375 5.187500q0.000000 4.250000 -2.343750 7.656250q-2.343750 3.390625 -6.187500 5.265625q-3.828125 1.875000 -7.875000 1.875000q-5.468750 0.000000 -10.015625 -2.968750q-1.406250 1.953125 -1.406250 4.390625q0.000000 2.640625 1.734375 4.625000q1.734375 1.968750 4.359375 1.968750l8.203125 0.000000q5.968750 0.000000 10.750000 1.078125q4.781250 1.062500 8.031250 4.296875q3.250000 3.218750 3.250000 9.125000q0.000000 4.390625 -3.718750 7.296875q-3.703125 2.906250 -8.859375 4.203125q-5.156250 1.296875 -9.546875 1.296875q-4.437500 0.000000 -9.625000 -1.296875q-5.171875 -1.296875 -8.890625 -4.203125q-3.703125 -2.906250 -3.703125 -7.296875M8.406250 7.812500q0.000000 3.375000 2.734375 5.640625q2.734375 2.265625 6.578125 3.359375q3.859375 1.109375 7.281250 1.109375q3.375000 0.000000 7.218750 -1.109375q3.859375 -1.093750 6.562500 -3.359375q2.718750 -2.265625 2.718750 -5.640625q0.000000 -5.218750 -4.781250 -6.765625q-4.781250 -1.531250 -11.625000 -1.531250l-8.203125 0.000000q-2.296875 0.000000 -4.218750 1.093750q-1.921875 1.093750 -3.093750 3.078125q-1.171875 1.984375 -1.171875 4.125000M22.218750 -17.390625q8.500000 0.000000 8.500000 -12.109375q0.000000 -5.218750 -1.812500 -8.609375q-1.812500 -3.390625 -6.687500 -3.390625q-4.890625 0.000000 -6.703125 3.390625q-1.796875 3.390625 -1.796875 8.609375q0.000000 3.328125 0.687500 6.015625q0.687500 2.687500 2.531250 4.390625q1.859375 1.703125 5.281250 1.703125"/>
<path id="c_1210e7f4d85518601ea3049211d562d0" d="M4.984375 -0.000000l0.000000 -2.687500q0.000000 -0.250000 0.187500 -0.531250l15.531250 -17.187500q3.515625 -3.812500 5.703125 -6.390625q2.203125 -2.593750 4.343750 -5.968750q2.156250 -3.375000 3.406250 -6.859375q1.250000 -3.484375 1.250000 -7.390625q0.000000 -4.109375 -1.515625 -7.843750q-1.515625 -3.734375 -4.515625 -5.984375q-3.000000 -2.250000 -7.250000 -2.250000q-4.343750 0.000000 -7.812500 2.625000q-3.468750 2.609375 -4.890625 6.750000q0.390625 -0.093750 1.078125 -0.093750q2.250000 0.000000 3.828125 1.515625q1.593750 1.515625 1.593750 3.906250q0.000000 2.296875 -1.593750 3.890625q-1.578125 1.578125 -3.828125 1.578125q-2.343750 0.000000 -3.937500 -1.625000q-1.578125 -1.640625 -1.578125 -3.843750q0.000000 -3.765625 1.406250 -7.046875q1.421875 -3.296875 4.078125 -5.859375q2.671875 -2.578125 6.015625 -3.937500q3.343750 -1.375000 7.093750 -1.375000q5.718750 0.000000 10.640625 2.421875q4.937500 2.421875 7.812500 6.843750q2.890625 4.406250 2.890625 10.328125q0.000000 4.343750 -1.906250 8.250000q-1.906250 3.906250 -4.890625 7.109375q-2.968750 3.187500 -7.609375 7.250000q-4.640625 4.046875 -6.093750 5.406250l-11.328125 10.890625l9.609375 0.000000q7.078125 0.000000 11.843750 -0.109375q4.765625 -0.125000 5.046875 -0.375000q1.171875 -1.265625 2.406250 -9.234375l2.921875 0.000000l-2.828125 17.828125z"/>
<path id="c_06a7a4502300c60b4feec85758ecf628" d="M31.000000 24.812500q-5.562500 -4.406250 -9.593750 -10.093750q-4.015625 -5.687500 -6.593750 -12.140625q-2.562500 -6.437500 -3.828125 -13.468750q-1.265625 -7.031250 -1.265625 -14.109375q0.000000 -7.171875 1.265625 -14.203125q1.265625 -7.031250 3.875000 -13.531250q2.625000 -6.500000 6.671875 -12.156250q4.062500 -5.671875 9.468750 -9.921875q0.000000 -0.187500 0.500000 -0.187500l0.921875 0.000000q0.296875 0.000000 0.531250 0.265625q0.250000 0.265625 0.250000 0.609375q0.000000 0.437500 -0.187500 0.640625q-4.890625 4.781250 -8.140625 10.250000q-3.250000 5.468750 -5.234375 11.656250q-1.968750 6.171875 -2.843750 12.796875q-0.875000 6.609375 -0.875000 13.781250q0.000000 31.781250 16.984375 48.296875q0.296875 0.281250 0.296875 0.828125q0.000000 0.234375 -0.265625 0.546875q-0.265625 0.328125 -0.515625 0.328125l-0.921875 0.000000q-0.500000 0.000000 -0.500000 -0.187500"/>
<path id="c_b865a8a4692360a5eaaff4ecf56eccf7" d="M6.500000 25.000000q-0.890625 0.000000 -0.890625 -0.875000q0.000000 -0.437500 0.203125 -0.640625q17.093750 -16.703125 17.093750 -48.484375q0.000000 -31.781250 -16.906250 -48.296875q-0.390625 -0.234375 -0.390625 -0.828125q0.000000 -0.343750 0.265625 -0.609375q0.281250 -0.265625 0.625000 -0.265625l0.921875 0.000000q0.296875 0.000000 0.484375 0.187500q7.187500 5.671875 11.968750 13.781250q4.781250 8.093750 7.000000 17.281250q2.234375 9.171875 2.234375 18.750000q0.000000 7.078125 -1.203125 13.937500q-1.203125 6.859375 -3.812500 13.515625q-2.609375 6.671875 -6.609375 12.312500q-4.000000 5.640625 -9.578125 10.046875q-0.187500 0.187500 -0.484375 0.187500z"/>
</defs>
<g id="mathtext3">
<g style="fill: #000000" transform="translate(253.765625,62.375000)">
<use xlink:href="#c_b1ccbd40de9466de4ee940ca0731021f" transform="translate(0.000000,-4.750000)scale(0.150000)"/>
<use xlink:href="#c_7bbc93c01755cdeb977d08bdfb9ce616" transform="translate(9.987305,-4.750000)scale(0.150000)"/>
<use xlink:href="#c_a764f622c6f118158a993ace88ddaf97" transform="translate(22.589844,-4.750000)scale(0.150000)"/>
<use xlink:href="#c_3f72f0e1b2c8acfc5e912f2e891b93aa" transform="translate(26.742676,-4.750000)scale(0.150000)"/>
<use xlink:href="#c_3877d6afdbe473a50acdfd061b4e65d6" transform="translate(34.242676,-4.750000)scale(0.150000)"/>
<use xlink:href="#c_1210e7f4d85518601ea3049211d562d0" transform="translate(41.742676,-0.923594)scale(0.105000)"/>
<use xlink:href="#c_06a7a4502300c60b4feec85758ecf628" transform="translate(49.242676,-4.750000)scale(0.150000)"/>
<use xlink:href="#c_277960698c3e9ebfcde4d2161536ce57" transform="translate(55.065430,-4.750000)scale(0.150000)"/>
<use xlink:href="#c_b865a8a4692360a5eaaff4ecf56eccf7" transform="translate(63.627441,-4.750000)scale(0.150000)"/>
</g>
</g>
</g>
</g>
</g>
</svg>
